<svg width="36" height="26" viewBox="0 0 36 26" fill="none" xmlns="http://www.w3.org/2000/svg">
<path fill-rule="evenodd" clip-rule="evenodd" d="M0 4.87636C0 2.59215 1.86673 0.714294 4.13681 0.714294H21.8366C24.107 0.714294 25.9734 2.59243 25.9734 4.87636V21.1237C25.9734 23.4079 24.1067 25.2857 21.8366 25.2857H4.13681C1.86673 25.2857 0 23.4076 0 21.1237V4.87636ZM5.65104 6.11171C5.42709 5.88641 5.1236 5.75921 4.80699 5.75813L4.80711 5.75818C4.48886 5.75683 4.18324 5.88296 3.95717 6.10852C3.73136 6.33385 3.60386 6.64054 3.60252 6.96069V12.995C3.60118 13.317 3.72787 13.6258 3.95395 13.8535C4.18 14.081 4.48723 14.2085 4.80705 14.2071C5.12551 14.2058 5.43006 14.0775 5.65426 13.85C5.87846 13.6228 6.00381 13.3153 6.00247 12.9949V6.96064C6.00114 6.64207 5.875 6.337 5.65104 6.11171ZM32.3249 4.76005C32.5788 4.62342 32.8647 4.54823 33.1475 4.52667L33.1475 4.52687C33.4304 4.50531 33.7092 4.53603 33.9538 4.61634C34.4426 4.77669 34.8115 5.06828 35.0975 5.39221C35.6697 6.03983 36 6.83294 36 7.73603L35.9997 18.2619C35.9997 19.1437 35.6756 19.9376 35.1067 20.5704C34.5377 21.2032 33.4799 21.6918 32.4653 21.3016L28.3732 19.7288V6.89172L32.3249 4.76005Z" fill="white"/>
<path fill-rule="evenodd" clip-rule="evenodd" d="M0 4.87636C0 2.59215 1.86673 0.714294 4.13681 0.714294H21.8366C24.107 0.714294 25.9734 2.59243 25.9734 4.87636V21.1237C25.9734 23.4079 24.1067 25.2857 21.8366 25.2857H4.13681C1.86673 25.2857 0 23.4076 0 21.1237V4.87636ZM5.65104 6.11171C5.42709 5.88641 5.1236 5.75921 4.80699 5.75813L4.80711 5.75818C4.48886 5.75683 4.18324 5.88296 3.95717 6.10852C3.73136 6.33385 3.60386 6.64054 3.60252 6.96069V12.995C3.60118 13.317 3.72787 13.6258 3.95395 13.8535C4.18 14.081 4.48723 14.2085 4.80705 14.2071C5.12551 14.2058 5.43006 14.0775 5.65426 13.85C5.87846 13.6228 6.00381 13.3153 6.00247 12.9949V6.96064C6.00114 6.64207 5.875 6.337 5.65104 6.11171ZM32.3249 4.76005C32.5788 4.62342 32.8647 4.54823 33.1475 4.52667L33.1475 4.52687C33.4304 4.50531 33.7092 4.53603 33.9538 4.61634C34.4426 4.77669 34.8115 5.06828 35.0975 5.39221C35.6697 6.03983 36 6.83294 36 7.73603L35.9997 18.2619C35.9997 19.1437 35.6756 19.9376 35.1067 20.5704C34.5377 21.2032 33.4799 21.6918 32.4653 21.3016L28.3732 19.7288V6.89172L32.3249 4.76005Z" fill="url(#paint0_linear_1_1798)"/>
<defs>
<linearGradient id="paint0_linear_1_1798" x1="-0.946152" y1="34.0253" x2="32.6895" y2="19.4865" gradientUnits="userSpaceOnUse">
<stop stop-color="#0D748B"/>
<stop offset="1" stop-color="#1A0B73"/>
</linearGradient>
</defs>
</svg>
